<?xml version="1.0" encoding="utf-8"?>
<!-- Generator: Adobe Illustrator 17.0.0, SVG Export Plug-In . SVG Version: 6.00 Build 0)  -->
<!DOCTYPE svg PUBLIC "-//W3C//DTD SVG 1.1//EN" "http://www.w3.org/Graphics/SVG/1.1/DTD/svg11.dtd">
<svg version="1.1" id="Layer_1" xmlns="http://www.w3.org/2000/svg" xmlns:xlink="http://www.w3.org/1999/xlink" x="0px" y="0px"
	 width="40px" height="40px" viewBox="0 0 40 40" enable-background="new 0 0 40 40" xml:space="preserve">
<g>
	<polygon fill="#FFFFFF" points="23,21 17.311,16.266 18,24 19.507,21.74 21.275,24.929 22.15,24.444 20.24,21 	"/>
	<path fill="#FFFFFF" d="M31,11H9c-0.552,0-1,0.448-1,1v16c0,0.552,0.448,1,1,1h8l-1,2h8l-1-2h8c0.552,0,1-0.448,1-1V12
		C32,11.448,31.552,11,31,11z M30,27H10V13h20V27z"/>
</g>
</svg>
