<?xml version="1.0" encoding="utf-8"?>
<!-- Generator: Adobe Illustrator 17.0.0, SVG Export Plug-In . SVG Version: 6.00 Build 0)  -->
<!DOCTYPE svg PUBLIC "-//W3C//DTD SVG 1.1//EN" "http://www.w3.org/Graphics/SVG/1.1/DTD/svg11.dtd">
<svg version="1.1" id="Layer_1" xmlns="http://www.w3.org/2000/svg" xmlns:xlink="http://www.w3.org/1999/xlink" x="0px" y="0px"
	 width="40px" height="40px" viewBox="0 0 40 40" enable-background="new 0 0 40 40" xml:space="preserve">
<g>
	<path fill="#FFFFFF" d="M33,12H7c-0.552,0-1,0.448-1,1v15c0,0.552,0.448,1,1,1h26c0.552,0,1-0.448,1-1V13
		C34,12.448,33.552,12,33,12z M21,17h2v2h-2V17z M21,21h2v2h-2V21z M17,17h2v2h-2V17z M17,21h2v2h-2V21z M13,17h2v2h-2V17z M8,17h3
		v2H8V17z M8,21h3v2H8V21z M12,27H8v-2h4V27z M13,21h2v2h-2V21z M26,27H14v-2h12V27z M27,23h-2v-2h2V23z M27,19h-2v-2h2V19z M32,27
		h-4v-2h4V27z M32,23h-3v-2h3V23z M32,19h-3v-2h3V19z"/>
</g>
</svg>
